<?xml version="1.0" standalone="no"?>
<!DOCTYPE svg PUBLIC "-//W3C//DTD SVG 20010904//EN"
 "http://www.w3.org/TR/2001/REC-SVG-20010904/DTD/svg10.dtd">
<svg version="1.0" xmlns="http://www.w3.org/2000/svg"
 width="7916.000000pt" height="4500.000000pt" viewBox="0 0 7916.000000 4500.000000"
 preserveAspectRatio="xMidYMid meet">

<g transform="translate(0.000000,4500.000000) scale(0.100000,-0.100000)"
fill="#000000" stroke="none">
<path d="M18807 32497 c-2423 -1384 -3343 -1914 -3330 -1919 10 -3 54 -7 98
-7 291 -3 839 -69 1245 -151 1229 -248 2419 -799 3411 -1582 450 -355 945
-845 1305 -1293 185 -230 438 -590 573 -815 l51 -85 0 3883 c0 2135 -1 3882
-2 3882 -2 0 -1509 -861 -3351 -1913z"/>
<path d="M40390 29460 c-1617 -60 -3053 -549 -4295 -1460 -1151 -846 -1932
-1882 -2360 -3130 -449 -1313 -496 -2937 -125 -4324 192 -718 514 -1403 936
-1996 206 -289 374 -489 639 -759 836 -852 1887 -1504 3015 -1870 597 -193
1183 -306 1885 -363 216 -18 1080 -17 1315 0 576 43 1162 123 1672 228 598
123 1125 311 1703 608 183 94 546 304 595 344 l20 17 -2 1249 -3 1250 -89
-150 c-375 -628 -872 -1179 -1456 -1614 -1435 -1068 -3226 -1317 -4855 -673
-1851 731 -3188 2522 -3494 4678 -103 720 -92 1492 30 2205 160 942 522 1822
1055 2570 206 289 395 509 656 766 416 408 848 719 1343 967 1637 818 3511
693 5049 -336 294 -197 544 -404 822 -681 348 -349 602 -672 855 -1091 l84
-139 3 1248 c2 1180 1 1249 -15 1262 -10 7 -92 58 -183 112 -719 433 -1423
706 -2220 861 -870 169 -1813 249 -2580 221z"/>
<path d="M14800 29449 c-494 -31 -1028 -125 -1530 -269 -264 -76 -656 -219
-867 -317 l-61 -28 4900 -2830 c2695 -1556 4903 -2831 4907 -2833 14 -5 -29
330 -75 577 -319 1736 -1249 3248 -2649 4304 -1096 827 -2398 1310 -3765 1397
-189 11 -661 11 -860 -1z"/>
<path d="M29862 29212 l-1813 -2 140 -155 c427 -474 692 -846 789 -1108 l27
-72 3 -5380 c2 -4851 1 -5387 -13 -5451 -19 -85 -108 -270 -194 -401 -130
-200 -369 -500 -590 -740 -58 -64 -119 -131 -134 -149 l-28 -34 1826 0 1827 0
-78 83 c-114 121 -307 345 -421 488 -250 315 -401 565 -449 744 -11 42 -14
960 -14 5436 l0 5387 21 68 c76 249 371 672 807 1157 63 70 113 129 111 130
-2 1 -820 1 -1817 -1z"/>
<path d="M47161 29089 c501 -532 766 -899 835 -1154 12 -42 14 -945 14 -5480
0 -4872 -2 -5437 -15 -5490 -62 -238 -347 -627 -799 -1092 l-148 -153 2838 0
c3124 0 3219 2 3814 61 2329 231 4198 1202 5411 2811 424 562 786 1245 995
1873 253 763 366 1623 334 2542 -51 1490 -368 2698 -934 3563 -311 475 -783
977 -1252 1332 -947 717 -2301 1155 -3983 1288 -247 19 -341 20 -3738 20
l-3485 0 113 -121z m5939 -568 c686 -44 1123 -112 1615 -252 1200 -340 2123
-971 2749 -1879 556 -805 831 -1663 928 -2890 17 -213 17 -1087 0 -1340 -94
-1402 -397 -2397 -1005 -3302 -446 -664 -999 -1185 -1657 -1563 -519 -298
-1131 -526 -1785 -664 -1098 -233 -2510 -226 -3912 19 -94 17 -174 30 -177 30
-3 0 -6 2623 -6 5829 l0 5829 28 6 c63 13 374 57 602 86 375 46 773 79 1180
100 215 11 1228 4 1440 -9z"/>
<path d="M61921 29113 c94 -97 259 -287 365 -418 274 -341 441 -604 503 -792
l21 -62 0 -5400 0 -5399 -21 -68 c-71 -231 -334 -608 -735 -1054 -62 -69 -131
-143 -153 -165 -23 -21 -41 -43 -41 -47 0 -4 637 -8 1416 -8 l1416 0 -83 91
c-472 513 -772 933 -848 1184 l-21 70 2 4938 3 4938 2834 -5610 c1558 -3086
2836 -5609 2840 -5607 3 3 1291 2628 2861 5835 l2855 5830 3 -5167 2 -5167
-21 -64 c-79 -247 -354 -635 -787 -1113 l-143 -158 1826 0 1826 0 -122 132
c-440 475 -725 871 -821 1138 l-23 65 0 5395 0 5395 22 70 c69 218 309 567
682 990 58 66 146 162 195 213 l89 92 -1452 -2 -1452 -3 -2540 -5035 c-1398
-2769 -2544 -5038 -2548 -5042 -3 -4 -1188 2262 -2631 5035 l-2626 5042 -1384
3 -1384 2 75 -77z"/>
<path d="M11045 28068 c-1244 -928 -2171 -2315 -2559 -3828 -91 -353 -145
-656 -187 -1040 -26 -247 -37 -849 -20 -1117 134 -2064 1129 -3919 2761 -5144
l145 -109 3 2835 c1 1559 1 4111 0 5671 l-3 2837 -140 -105z"/>
<path d="M12310 22504 c0 -2785 2 -5064 4 -5064 6 0 8749 5050 8758 5058 5 6
-1697 991 -8568 4959 l-194 112 0 -5065z"/>
<path d="M4738 24462 c-1886 -1076 -3428 -1959 -3428 -1962 0 -5 6834 -3910
6843 -3910 3 0 -17 42 -44 93 -227 418 -454 965 -600 1445 -456 1499 -478
3055 -64 4534 160 568 415 1201 679 1678 25 44 44 80 43 80 -1 0 -1544 -881
-3429 -1958z"/>
<path d="M17290 19026 c-2676 -1546 -4885 -2823 -4909 -2837 l-43 -25 169 -71
c881 -373 1764 -553 2703 -553 2248 0 4335 1058 5641 2857 227 312 413 619
594 978 331 657 539 1295 655 2009 27 169 63 447 57 452 -1 1 -2191 -1263
-4867 -2810z"/>
<path d="M22115 18293 c-22 -37 -96 -153 -166 -258 -1200 -1806 -3052 -3044
-5175 -3459 -408 -80 -959 -145 -1246 -147 -80 0 -82 -1 -59 -17 13 -9 1523
-872 3355 -1918 l3331 -1903 3 1946 c1 1069 1 2818 0 3885 l-3 1939 -40 -68z"/>
</g>
</svg>
